<svg width="512" height="512" viewBox="0 0 512 512" fill="none" xmlns="http://www.w3.org/2000/svg">
<path d="M405.333 0H106.667C78.3873 0.0338743 51.2759 11.2828 31.2794 31.2794C11.2828 51.2759 0.0338743 78.3873 0 106.667L0 405.333C0.0338743 433.613 11.2828 460.724 31.2794 480.721C51.2759 500.717 78.3873 511.966 106.667 512H405.333C433.613 511.966 460.724 500.717 480.721 480.721C500.717 460.724 511.966 433.613 512 405.333V106.667C511.966 78.3873 500.717 51.2759 480.721 31.2794C460.724 11.2828 433.613 0.0338743 405.333 0V0ZM106.667 42.6667H405.333C422.307 42.6667 438.586 49.4095 450.588 61.4118C462.591 73.4142 469.333 89.6928 469.333 106.667V405.333C469.297 414.837 467.109 424.209 462.933 432.747L267.456 237.269C257.551 227.361 245.791 219.502 232.847 214.14C219.904 208.777 206.031 206.017 192.021 206.017C178.011 206.017 164.139 208.777 151.195 214.14C138.252 219.502 126.492 227.361 116.587 237.269L42.6667 311.168V106.667C42.6667 89.6928 49.4095 73.4142 61.4118 61.4118C73.4142 49.4095 89.6928 42.6667 106.667 42.6667V42.6667ZM106.667 469.333C89.6928 469.333 73.4142 462.591 61.4118 450.588C49.4095 438.586 42.6667 422.307 42.6667 405.333V371.499L146.731 267.435C152.674 261.487 159.731 256.77 167.499 253.551C175.266 250.332 183.592 248.675 192 248.675C200.408 248.675 208.734 250.332 216.501 253.551C224.269 256.77 231.326 261.487 237.269 267.435L432.747 462.933C424.209 467.109 414.837 469.297 405.333 469.333H106.667Z" fill="black"/>
<path d="M367.667 227.333C382.434 227.333 396.87 222.954 409.149 214.75C421.428 206.545 430.998 194.884 436.65 181.24C442.301 167.597 443.78 152.584 440.899 138.1C438.018 123.616 430.906 110.312 420.464 99.8694C410.022 89.4271 396.717 82.3158 382.233 79.4347C367.749 76.5537 352.737 78.0324 339.093 83.6837C325.449 89.335 313.788 98.9053 305.584 111.184C297.379 123.463 293 137.899 293 152.667C293 172.47 300.867 191.461 314.869 205.464C328.872 219.467 347.864 227.333 367.667 227.333V227.333ZM367.667 120.667C373.996 120.667 380.183 122.543 385.445 126.06C390.707 129.576 394.809 134.574 397.231 140.421C399.653 146.268 400.287 152.702 399.052 158.91C397.817 165.117 394.769 170.819 390.294 175.294C385.819 179.769 380.117 182.817 373.91 184.052C367.702 185.287 361.268 184.653 355.421 182.231C349.574 179.809 344.576 175.707 341.06 170.445C337.543 165.183 335.667 158.996 335.667 152.667C335.667 144.18 339.038 136.04 345.039 130.039C351.04 124.038 359.18 120.667 367.667 120.667V120.667Z" fill="black"/>
</svg>
